<svg width="56" height="56" viewBox="0 0 56 56" fill="none" xmlns="http://www.w3.org/2000/svg">
<rect width="56" height="56" rx="20" fill="#FEFBF4"/>
<rect x="23" y="5" width="10" height="10" rx="5" fill="#F2C3B3"/>
<path d="M20 21C20 18.2386 22.2386 16 25 16H31C33.7614 16 36 18.2386 36 21V24C36 24.5523 35.5523 25 35 25H21C20.4477 25 20 24.5523 20 24V21Z" fill="#F2C3B3"/>
<rect x="36" y="27" width="10" height="10" rx="5" fill="#F2C3B3"/>
<path d="M33 43C33 40.2386 35.2386 38 38 38H44C46.7614 38 49 40.2386 49 43V46C49 46.5523 48.5523 47 48 47H34C33.4477 47 33 46.5523 33 46V43Z" fill="#F2C3B3"/>
<rect x="12" y="27" width="10" height="10" rx="5" fill="#F2C3B3"/>
<path d="M9 43C9 40.2386 11.2386 38 14 38H20C22.7614 38 25 40.2386 25 43V46C25 46.5523 24.5523 47 24 47H10C9.44772 47 9 46.5523 9 46V43Z" fill="#F2C3B3"/>
</svg>
